<svg xmlns="http://www.w3.org/2000/svg" viewBox="0 0 716.8 135.6"><defs><linearGradient id="prefix__a" x1="58.1" y1="126.2" x2="58.1" y2="10" gradientUnits="userSpaceOnUse"><stop offset="0" stop-color="#07f"/><stop offset="1" stop-color="#96ea6b"/></linearGradient><linearGradient id="prefix__b" x1="33.5" y1="108" x2="33.5" y2="27.6" gradientUnits="userSpaceOnUse"><stop offset="0" stop-color="#07f"/><stop offset="1" stop-color="#54a6c7"/></linearGradient></defs><path d="M145.4 61.9v-51h22.3c5.5 0 10.4 1.1 14.6 3.2 4.2 2.1 7.4 5.1 9.8 8.9 2.3 3.8 3.5 8.3 3.5 13.4s-1.2 9.6-3.5 13.4c-2.3 3.8-5.6 6.8-9.8 8.9-4.2 2.1-9 3.2-14.6 3.2h-22.3zm9.5-8h12.4c3.8 0 7.2-.7 9.9-2.2 2.8-1.5 5-3.5 6.5-6.1 1.5-2.6 2.3-5.7 2.3-9.2s-.8-6.6-2.3-9.2c-1.5-2.6-3.7-4.6-6.5-6.1s-6.1-2.2-9.9-2.2h-12.4v35zM204.1 61.9v-51h9.5v51h-9.5zM238.4 61.9V41.7l2.1 5.8-22.1-36.7h10.1l17.8 29.5h-5.7l17.9-29.5h9.3l-22.2 36.7 2.2-5.8v20.2h-9.5z" fill="#224"/><path d="M271.9 61.9v-51h9.5v51h-9.5zM293.7 61.9v-51h7.8l32 39.3h-3.9V10.9h9.4v51h-7.8l-32-39.3h3.9v39.3h-9.4zM361.6 61.9v-43h-16.9v-8H388v8h-16.9v43h-9.5zM403.1 54h28.8v7.9h-38.3v-51h37.2v7.9H403v35.1zm-.7-21.9h25.4v7.8h-25.4v-7.8zM441 61.9v-51h21c4.5 0 8.4.7 11.6 2.2 3.2 1.5 5.7 3.5 7.5 6.3 1.7 2.7 2.6 6 2.6 9.7s-.9 7-2.6 9.7c-1.7 2.7-4.2 4.8-7.5 6.2-3.2 1.4-7.1 2.1-11.6 2.1h-15.7l4.2-4.3V62H441zm9.5-18.1l-4.2-4.5h15.3c4.2 0 7.3-.9 9.4-2.7 2.1-1.8 3.2-4.3 3.2-7.5s-1.1-5.8-3.2-7.5c-2.1-1.7-5.3-2.6-9.4-2.6h-15.3l4.2-4.7v29.5zm23.9 18.1l-12.9-18.5h10.1l13 18.5h-10.2zM492.8 61.9v-51h7.8l32 39.3h-3.9V10.9h9.4v51h-7.8l-32-39.3h3.9v39.3h-9.4zM566.2 62.6c-4 0-7.8-.6-11.4-1.7-3.6-1.1-6.5-2.6-8.7-4.4l3.3-7.4c2 1.6 4.6 2.9 7.6 4s6.1 1.6 9.3 1.6 4.8-.3 6.5-.9c1.7-.6 2.9-1.4 3.6-2.4.8-1 1.2-2.1 1.2-3.4s-.6-2.8-1.7-3.8c-1.1-.9-2.6-1.7-4.3-2.3-1.8-.6-3.7-1.1-5.9-1.6s-4.3-1.1-6.5-1.7c-2.2-.7-4.1-1.5-5.9-2.6-1.8-1-3.2-2.4-4.3-4.2-1.1-1.7-1.7-4-1.7-6.7s.7-5.3 2.2-7.6c1.5-2.3 3.7-4.2 6.8-5.5 3-1.4 6.9-2.1 11.5-2.1s6.1.4 9.1 1.2c3 .8 5.6 1.9 7.9 3.4l-3 7.4c-2.3-1.4-4.6-2.4-7.1-3-2.4-.7-4.8-1-7-1s-4.7.3-6.4.9c-1.6.6-2.8 1.5-3.6 2.5-.8 1-1.1 2.2-1.1 3.5s.5 2.8 1.6 3.8c1.1.9 2.5 1.7 4.3 2.2 1.8.5 3.8 1.1 5.9 1.6 2.2.5 4.4 1.1 6.5 1.7 2.2.6 4.1 1.5 5.9 2.5 1.8 1 3.2 2.4 4.3 4.2 1.1 1.7 1.6 4 1.6 6.6s-.7 5.2-2.2 7.5c-1.5 2.3-3.8 4.2-6.8 5.5-3.1 1.4-6.9 2.1-11.6 2.1zM604.2 61.9h-9.5v-51h9.5v51zm27.1-21.8h-27.9V32h27.9v8.1zm-.7-29.2h9.5v51h-9.5v-51zM652.3 61.9v-51h9.5v51h-9.5zM674.1 61.9v-51h21c4.5 0 8.4.7 11.6 2.2 3.2 1.5 5.7 3.5 7.5 6.3 1.7 2.7 2.6 6 2.6 9.7s-.9 7-2.6 9.7c-1.7 2.7-4.2 4.8-7.5 6.3-3.2 1.5-7.1 2.2-11.6 2.2h-15.7l4.2-4.4v19.2h-9.5zm9.5-18.1l-4.2-4.6h15.3c4.2 0 7.3-.9 9.4-2.7 2.1-1.8 3.2-4.3 3.2-7.5s-1.1-5.8-3.2-7.5c-2.1-1.7-5.3-2.6-9.4-2.6h-15.3l4.2-4.7v29.5z" fill="#3f88f5"/><path d="M145.1 125.5v-38h6.9v33.2h9.2v4.8h-16.1zM179.5 125.9c-2 0-3.7-.4-5-1.1-1.3-.8-2.2-1.9-2.8-3.4-.6-1.5-.9-3.3-.9-5.4v-8.2c0-2.2.3-4 .9-5.4.6-1.5 1.6-2.6 2.9-3.3 1.3-.8 2.9-1.1 4.9-1.1s3.8.4 5 1.2c1.2.8 2.1 2 2.6 3.5s.8 3.4.8 5.7v3.8h-10.8v5.3c0 .9 0 1.6.3 2.2.2.6.4 1 .8 1.2.4.3.8.4 1.4.4s1-.1 1.4-.4c.3-.3.6-.7.8-1.2.2-.5.2-1.2.2-1.9v-2.3h6v1.8c0 2.8-.7 4.9-2.1 6.3-1.4 1.5-3.5 2.2-6.3 2.2zm-2.4-16.8h4.8v-2.6c0-.9 0-1.7-.2-2.3-.2-.6-.4-1-.8-1.3-.3-.3-.8-.4-1.5-.4s-1 .1-1.4.4c-.3.3-.6.8-.8 1.4-.2.7-.2 1.6-.2 2.8v1.9zM204.4 125.9c-1.2 0-2.3-.3-3.1-1-.9-.6-1.5-1.5-2-2.4-.5-1-.7-2-.7-3.1 0-1.7.3-3.1.9-4.3.6-1.2 1.5-2.1 2.5-2.9 1-.8 2.2-1.5 3.5-2 1.3-.6 2.6-1.1 4-1.6v-2.3c0-.8 0-1.4-.2-2-.1-.5-.3-.9-.6-1.2-.3-.3-.8-.4-1.4-.4s-1 .1-1.3.4c-.3.3-.6.6-.7 1.1-.1.5-.2 1-.3 1.6v1.6l-6.1-.2c0-3.1.9-5.4 2.3-6.9 1.5-1.5 3.7-2.2 6.6-2.2s4.7.8 5.9 2.3c1.2 1.5 1.9 3.5 1.9 6.1v15.2c0 .8.1 1.5.2 2.2 0 .7.1 1.2.2 1.7h-5.7c0-.6-.2-1.3-.4-2.1-.1-.8-.2-1.4-.3-1.8-.3 1.1-.9 2.1-1.8 3-.9.9-2.1 1.3-3.6 1.3zm2.3-4.7c.4 0 .8-.1 1.1-.3.4-.2.7-.4 1-.7s.5-.5.6-.8v-7.6c-.7.4-1.3.8-1.9 1.2s-1.1.9-1.6 1.3c-.5.5-.8 1-1 1.6-.2.6-.4 1.2-.4 2s.2 1.8.6 2.4c.4.6.9.9 1.6.9zM227.3 125.5V98.4h6.4v4.2c.9-1.6 1.9-2.7 2.8-3.4.9-.7 2-1.1 3.1-1.1h1v6.6c-.4-.2-.8-.3-1.2-.4-.5-.1-.9-.2-1.4-.2-.8 0-1.6.2-2.3.6-.7.4-1.3 1.1-2 2v18.7h-6.4zM250.7 125.5V98.4h6.4v2.7c1-.9 2-1.7 3.1-2.3 1.1-.6 2.2-.9 3.5-.9s2 .3 2.7.8c.7.5 1.1 1.3 1.5 2.2.3.9.5 1.9.5 3v21.6H262v-20.3c0-.8-.1-1.4-.4-1.9-.3-.4-.7-.7-1.5-.7s-.9.1-1.4.4l-1.5.9v21.5h-6.4zM309.7 125.9c-1 0-1.9-.2-2.8-.7-.9-.5-1.7-1-2.4-1.7v2h-6.4v-38h6.4v12.9c.8-.8 1.6-1.4 2.6-1.8.9-.5 1.9-.7 3-.7s2.2.3 3 .8c.8.6 1.4 1.3 1.8 2.2.4.9.7 1.9.9 3 .2 1 .3 2.1.3 3v9.2c0 1.8-.2 3.4-.6 4.9-.4 1.5-1.1 2.6-2 3.5-.9.9-2.1 1.3-3.6 1.3zm-2.4-4.5c.7 0 1.2-.2 1.5-.7.3-.5.5-1.1.7-1.8.1-.8.2-1.6.2-2.5v-9.7c0-.8 0-1.6-.2-2.3-.1-.7-.4-1.2-.7-1.6-.3-.4-.8-.6-1.5-.6s-1 .1-1.5.4c-.5.2-.9.5-1.3.8v17.1c.4.3.9.5 1.3.7.5.2 1 .3 1.5.3zM327.5 132.8v-4.6c1.1 0 2 0 2.7-.2.7-.1 1.2-.3 1.5-.7.3-.3.5-.8.5-1.3s-.1-1-.3-1.9c-.2-.9-.4-1.8-.7-2.9l-6-22.9h6.2l3.5 17.9 3-17.9h6.1l-6.3 28.2c-.3 1.6-.9 2.8-1.7 3.8-.8.9-1.8 1.6-3 1.9-1.2.4-2.6.6-4.3.6h-1.2zM378.4 125.9c-2.2 0-3.8-.8-4.9-2.3-1.1-1.5-1.7-4-1.7-7.4v-8.3c0-1.9.2-3.6.6-5.1.4-1.5 1.1-2.7 2-3.6.9-.9 2.2-1.3 3.8-1.3s1.9.2 2.7.6c.8.4 1.6.9 2.3 1.5V87.4h6.4v38h-6.4v-1.9c-.7.7-1.5 1.3-2.3 1.7-.8.4-1.7.6-2.6.6zm2.3-4.4c.3 0 .7 0 1.2-.2.4-.2.9-.4 1.4-.7v-17.4c-.4-.2-.8-.5-1.2-.6-.4-.2-.9-.3-1.4-.3-.9 0-1.5.4-1.9 1.2-.4.8-.5 1.8-.5 3v10.1c0 .9 0 1.7.2 2.4.1.7.4 1.3.7 1.7.4.4.9.6 1.6.6zM409.5 125.9c-2 0-3.6-.4-4.9-1.1-1.3-.7-2.2-1.8-2.9-3.2-.6-1.4-1-3.1-1-5.1v-9.1c0-2 .3-3.7 1-5.1.6-1.4 1.6-2.5 2.9-3.2 1.3-.7 2.9-1.1 4.9-1.1s3.6.4 4.9 1.1c1.3.7 2.3 1.8 2.9 3.2.6 1.4 1 3.1 1 5.1v9.1c0 2-.3 3.7-1 5.1-.6 1.4-1.6 2.5-2.9 3.2-1.3.7-2.9 1.1-4.9 1.1zm.1-4.4c.7 0 1.3-.2 1.6-.6.3-.4.6-1 .7-1.7 0-.7.1-1.5.1-2.3V107c0-.8 0-1.6-.1-2.3 0-.7-.3-1.2-.7-1.7-.3-.4-.9-.6-1.6-.6s-1.3.2-1.6.6c-.3.4-.6 1-.7 1.7-.1.7-.2 1.5-.2 2.3v9.9c0 .8 0 1.6.2 2.3.1.7.3 1.3.7 1.7.3.4.9.6 1.6.6zM429.8 94v-5.3h6.4V94h-6.4zm0 31.5V98.4h6.4v27.1h-6.4zM448.1 125.5V98.4h6.4v2.7c1-.9 2-1.7 3.1-2.3 1.1-.6 2.2-.9 3.5-.9s2 .3 2.7.8c.7.5 1.1 1.3 1.5 2.2.3.9.5 1.9.5 3v21.6h-6.4v-20.3c0-.8-.1-1.4-.4-1.9-.3-.4-.7-.7-1.5-.7s-.9.1-1.4.4l-1.5.9v21.5h-6.4zM485.2 134.4c-1.8 0-3.5-.2-4.9-.6-1.4-.4-2.5-1-3.3-1.7-.8-.8-1.2-1.8-1.2-3s.2-1.6.5-2.3c.4-.7.9-1.3 1.5-1.8s1.3-.9 2-1.3c-1-.3-1.8-.7-2.4-1.4-.5-.6-.8-1.4-.8-2.3s.3-2 .8-2.7c.5-.8 1.3-1.5 2.2-2.4-1-.8-1.7-1.8-2.2-2.9-.5-1.2-.7-2.7-.7-4.6s.3-3.8 1-5.2c.7-1.4 1.7-2.5 3-3.2 1.3-.7 2.9-1.1 4.8-1.1s2.6.2 3.6.6c1 .4 1.8 1.1 2.4 1.9.2-.4.7-.8 1.3-1.4s1.3-1 2.2-1.4l.8-.4 1.5 3.4c-.3 0-.8.3-1.4.5-.6.2-1.1.5-1.7.7-.6.3-1 .5-1.3.7.3.6.5 1.4.7 2.3.2.9.3 1.8.3 2.7 0 1.9-.3 3.6-.9 5-.6 1.4-1.5 2.5-2.7 3.3-1.2.8-2.8 1.1-4.8 1.1s-1.3 0-1.9-.2c-.6-.1-1.2-.2-1.7-.4-.2.3-.4.6-.5.9-.2.3-.3.6-.3 1s.2.6.6.8c.4.2 1 .4 1.9.5l5.7.6c2.2.2 3.9.9 4.9 2.1 1.1 1.2 1.6 2.8 1.6 4.8s-.4 3-1.1 4.1c-.7 1.1-1.9 1.9-3.4 2.5-1.5.6-3.6.8-6 .8zm.7-4.8c1.8 0 3.1-.2 3.9-.5.9-.3 1.3-1 1.3-1.9s-.1-.9-.3-1.2c-.2-.3-.6-.6-1.2-.8-.6-.2-1.4-.4-2.4-.4l-4.6-.4-.9.9c-.3.3-.5.6-.6 1-.2.3-.2.7-.2 1.1 0 .8.4 1.4 1.1 1.8.8.4 2.1.6 3.9.6zm-.4-16.7c.6 0 1-.1 1.4-.3.3-.2.6-.5.8-1 .2-.5.3-1 .4-1.7v-2.4-2.4c0-.7-.2-1.3-.4-1.7-.2-.5-.4-.8-.8-1-.3-.2-.8-.3-1.4-.3s-1 .1-1.4.3c-.4.2-.6.6-.8 1-.2.5-.3 1-.4 1.7 0 .7-.1 1.5-.1 2.4v2.3c0 .7.2 1.2.4 1.7s.5.8.8 1c.4.2.8.4 1.4.4zM524.6 132.8v-4.6c1.1 0 2 0 2.7-.2.7-.1 1.2-.3 1.5-.7.3-.3.5-.8.5-1.3s-.1-1-.3-1.9c-.2-.9-.4-1.8-.7-2.9l-6-22.9h6.2l3.5 17.9 3-17.9h6.1l-6.3 28.2c-.3 1.6-.9 2.8-1.7 3.8-.8.9-1.8 1.6-3 1.9-1.2.4-2.6.6-4.3.6h-1.2zM559.2 125.9c-2 0-3.6-.4-4.9-1.1-1.3-.7-2.2-1.8-2.9-3.2-.6-1.4-1-3.1-1-5.1v-9.1c0-2 .3-3.7 1-5.1.6-1.4 1.6-2.5 2.9-3.2 1.3-.7 2.9-1.1 4.9-1.1s3.6.4 4.9 1.1c1.3.7 2.3 1.8 2.9 3.2.6 1.4 1 3.1 1 5.1v9.1c0 2-.3 3.7-1 5.1-.6 1.4-1.6 2.5-2.9 3.2-1.3.7-2.9 1.1-4.9 1.1zm.1-4.4c.7 0 1.3-.2 1.6-.6.3-.4.6-1 .7-1.7 0-.7.1-1.5.1-2.3V107c0-.8 0-1.6-.1-2.3 0-.7-.3-1.2-.7-1.7-.3-.4-.9-.6-1.6-.6s-1.3.2-1.6.6c-.3.4-.6 1-.7 1.7-.1.7-.2 1.5-.2 2.3v9.9c0 .8 0 1.6.2 2.3.1.7.3 1.3.7 1.7.3.4.9.6 1.6.6zM583.6 125.9c-1.1 0-1.9-.3-2.6-.8-.7-.5-1.2-1.3-1.5-2.2-.3-.9-.5-1.9-.5-2.9V98.4h6.4v20.4c0 .8.1 1.4.4 1.9.3.5.8.7 1.5.7s.9-.1 1.4-.4c.5-.2 1-.5 1.4-.9V98.4h6.4v27.1h-6.4v-2.6c-.9.9-1.9 1.6-3 2.2-1.1.6-2.3.8-3.5.8zM608.5 125.5V98.4h6.4v4.2c.9-1.6 1.9-2.7 2.8-3.4.9-.7 2-1.1 3.1-1.1h1v6.6c-.4-.2-.8-.3-1.2-.4-.5-.1-.9-.2-1.4-.2-.8 0-1.6.2-2.3.6-.7.4-1.3 1.1-2 2v18.7h-6.4zM639.2 125.9c-2.3 0-4.2-.6-5.6-1.8-1.5-1.2-2.5-3-3.1-5.3l4.7-1.8c.4 1.5.9 2.6 1.5 3.4.6.8 1.4 1.2 2.4 1.2s1.3-.2 1.7-.6.6-.9.6-1.5-.2-1.4-.7-2c-.5-.6-1.2-1.4-2.3-2.3l-3.3-2.8c-1.2-1-2.1-2.1-2.9-3.2-.7-1.1-1.1-2.4-1.1-4.1s.3-2.7 1-3.8c.7-1 1.6-1.9 2.8-2.4 1.2-.6 2.5-.9 3.9-.9 2.2 0 3.9.6 5.3 1.9 1.3 1.3 2.2 3 2.6 5.1l-4.2 1.8c-.2-.8-.4-1.4-.7-2.1-.3-.6-.7-1.2-1.1-1.6-.5-.4-1-.6-1.6-.6s-1.2.2-1.6.6c-.4.4-.6.9-.6 1.5s.2 1.1.7 1.6c.5.6 1.1 1.2 1.9 1.9l3.3 3c.7.6 1.4 1.3 2.1 2 .7.7 1.2 1.5 1.6 2.4.4.9.7 1.9.7 3.1s-.4 2.9-1.1 3.9c-.7 1.1-1.7 1.9-2.9 2.4s-2.5.8-4 .8zM665.7 125.9c-2 0-3.7-.4-5-1.1-1.3-.8-2.2-1.9-2.8-3.4-.6-1.5-.9-3.3-.9-5.4v-8.2c0-2.2.3-4 .9-5.4.6-1.5 1.6-2.6 2.9-3.3 1.3-.8 2.9-1.1 4.9-1.1s3.8.4 5 1.2c1.2.8 2.1 2 2.6 3.5s.8 3.4.8 5.7v3.8h-10.8v5.3c0 .9 0 1.6.3 2.2.2.6.4 1 .8 1.2.4.3.8.4 1.4.4s1-.1 1.4-.4c.3-.3.6-.7.8-1.2.2-.5.2-1.2.2-1.9v-2.3h6v1.8c0 2.8-.7 4.9-2.1 6.3-1.4 1.5-3.5 2.2-6.3 2.2zm-2.4-16.8h4.8v-2.6c0-.9 0-1.7-.2-2.3-.2-.6-.4-1-.8-1.3-.3-.3-.8-.4-1.5-.4s-1 .1-1.4.4c-.3.3-.6.8-.8 1.4-.2.7-.2 1.6-.2 2.8v1.9zM685.7 125.5v-38h6.3v38h-6.3zM705.3 125.5v-22.7h-2.9v-4.5h2.9v-1.7c0-1.6.1-3 .4-4.2.3-1.2.9-2.1 1.9-2.8 1-.7 2.4-1 4.3-1h1.7c.5 0 1.1.1 1.8.2v4.7c-.3 0-.5-.1-.9-.2h-.9c-.8 0-1.3.2-1.5.7-.3.5-.4 1.2-.4 2.1v2.2h3.8v4.5h-3.8v22.7h-6.4z" fill="#787887"/><path d="M107.3 10H0v105.5c0 5.9 4.8 10.7 10.7 10.7H81V86.8c0-3.5 2.5-6.5 5.8-7.2s1-.2 1-.2c4.1 0 7.4 3.3 7.4 7.4v39.4h21V18.9c0-5-4-9-9-9zM63.6 26.3v83.6H15.2V26.3h48.4zm30 44.3c-7.3 5.5-15.5-2.7-9.9-9.9 7.3-5.5 15.5 2.7 9.9 9.9z" fill="url(#prefix__a)"/><path d="M47.2 100.8L19.9 108c-1.7 0-3.1-1.5-3.1-3.3V30.8c0-1.8 1.4-3.3 3.1-3.3l27.3 4.2c1.7 0 3.1 1.5 3.1 3.3v62.5c0 1.8-1.4 3.3-3.1 3.3z" fill="url(#prefix__b)"/><circle cx="45.6" cy="65.6" r="2.3" fill="#fff"/><path fill="#3f88f5" d="M58.1 131.4h58.4v4.2H58.1z"/><path fill="#8cc63f" d="M.3 0h58.8v4.2H.3z"/></svg>